<?xml version="1.0" encoding="utf-8"?>
<!-- Generator: Adobe Illustrator 24.2.3, SVG Export Plug-In . SVG Version: 6.00 Build 0)  -->
<svg version="1.1" id="Layer_1" xmlns="http://www.w3.org/2000/svg" xmlns:xlink="http://www.w3.org/1999/xlink" x="0px" y="0px"
	 viewBox="0 0 1600 236.6" style="enable-background:new 0 0 1600 236.6;" xml:space="preserve">
<style type="text/css">
	.st0{fill:#fff;}
	.st1{fill:#FF8000;}
</style>
<g>
	<path class="st0" d="M842.3,193.9c0,6.7-2.7,10.7-11.3,10.7h-56c-7.3,0-11.3-2-11.3-8.7c0-6.7,2.7-10,11.3-10h67.3
		C842.3,185.9,842.3,193.9,842.3,193.9z M1088.2,167.3v-7.3c0-6.7,2.7-10.7,12-10.7h56c8,0,11.3,2,11.3,9.3c0,6-3.3,8.7-10.7,8.7
		C1156.9,167.3,1088.2,167.3,1088.2,167.3z M1234.8,118v118h56.6v-86h46c15.3,0,23.3,4.7,23.3,20v66h56.6v-70.6
		c0-33.3-18-47.3-70-47.3C1347.5,118,1234.8,118,1234.8,118z M1096.2,118c-45.3,0-63.3,15.3-63.3,49.3v23.3
		c0,29.3,18,45.3,59.3,45.3h119.3v-31.3h-108c-10.7,0-14.7-3.3-14.7-10.7v-4.7h85.3c29.3,0,46-9.3,46-31.3v-5.3c0-20-10-34-60-34
		h-64L1096.2,118z M915,235.2h56.6v-77.3c0-5.3,2-8.7,8.7-8.7h44v-32h-62.6c-33.3,0-46.6,12.7-46.6,33.3v84l0,0L915,235.2z
		 M722.4,118v31.3h106c10.7,0,14,3.3,14,11.3v4.7H757c-35.3,0-46.6,14.7-46.6,33.3v4.7c0,26,20.7,33.3,61.3,33.3h62.6
		c44,0,63.3-10,63.3-44.6v-27.3c0-29.3-18-45.3-59.3-45.3H721.7V118L722.4,118z M385.8,183.3c0,37.3,18.7,52,68,52h107.3v-32h-99.3
		c-12,0-20-5.3-20-22v-10c0-15.3,7.3-21.3,19.3-21.3h99.3v-32H451.8c-48,0-66.6,20-66.6,52.6v13.3h0.7V183.3z M577.8,98.6v137.3
		h122.6v-32h-66V99.3h-56.6V98.6z M225.2,175.9V99.3h-32c-20,0-31.3,8-42.6,17.3L0,235.9h68.6l100-80.6v80.6h46.6l96.6-81.3v81.3
		h57.3V99.3h-31.3c-16.7,0-28.7,6.7-40.7,16.7L225.2,175.9C225.2,175.9,225.2,175.9,225.2,175.9z"/>
	<path class="st1" d="M1553.4,0c-31.3,0-76,9.3-123.9,26.7c-40,14.7-80,33.3-122.6,60.6c25.3-10,74.6-22,115.3-22
		c55.3,0,94.6,21.3,36.7,95.3C1629.3,48.6,1624.7,0,1553.4,0"/>
</g>
</svg>
