<svg xmlns:xlink="http://www.w3.org/1999/xlink"  width="199" height="60" viewBox="0 0 199 60" fill="none" xmlns="http://www.w3.org/2000/svg">
<g clip-path="url(#clip0_1160_2425)">
<path d="M29.902 0.0986328C13.4377 0.0986328 0.0900879 13.489 0.0900879 30.0065C0.0900879 46.5247 13.4377 59.914 29.902 59.914C46.3681 59.914 59.7143 46.5247 59.7143 30.0065C59.7143 13.4901 46.3681 0.100061 29.9016 0.100061L29.902 0.0986328ZM43.5735 43.2343C43.0396 44.1129 41.8933 44.3915 41.0175 43.8522C34.018 39.5629 25.2065 38.5915 14.8293 40.9701C13.8293 41.1986 12.8325 40.5701 12.6047 39.5665C12.3758 38.5629 12.9998 37.5629 14.0023 37.3343C25.3585 34.7315 35.0995 35.8522 42.9577 40.6701C43.8334 41.2093 44.1111 42.3558 43.5735 43.2343ZM47.2225 35.0908C46.5496 36.1879 45.1186 36.5343 44.0257 35.8593C36.0123 30.9179 23.7971 29.4868 14.3188 32.3733C13.0895 32.7458 11.7912 32.0508 11.4181 30.8197C11.0479 29.5865 11.741 28.2865 12.9681 27.9115C23.7949 24.6158 37.2547 26.2122 46.4571 31.8854C47.55 32.5604 47.8953 33.9958 47.2225 35.0908ZM47.5357 26.6108C37.9275 20.8854 22.0751 20.359 12.9016 23.1522C11.4285 23.6004 9.87064 22.7661 9.42422 21.2883C8.97781 19.8097 9.80869 18.2479 11.2829 17.7986C21.8135 14.5915 39.3194 15.2111 50.3816 21.7993C51.7094 22.5883 52.1437 24.3051 51.357 25.6326C50.5738 26.9618 48.8579 27.4001 47.5372 26.6108H47.5357ZM81.1984 27.7079C76.0508 26.4765 75.1359 25.6122 75.1359 23.7961C75.1359 22.0804 76.745 20.9258 79.1408 20.9258C81.4619 20.9258 83.7616 21.8026 86.1752 23.6076C86.2464 23.6622 86.339 23.684 86.428 23.6697C86.5205 23.6561 86.5988 23.6065 86.6522 23.5318L89.1656 19.9776C89.2688 19.8311 89.2403 19.6293 89.1015 19.5176C86.2286 17.2058 82.9962 16.0818 79.2156 16.0818C73.6585 16.0818 69.7746 19.4279 69.7746 24.2154C69.7746 29.3493 73.1245 31.1672 78.913 32.5704C83.8363 33.7086 84.6694 34.6622 84.6694 36.3665C84.6694 38.2558 82.9891 39.4308 80.2835 39.4308C77.2789 39.4308 74.8262 38.4129 72.085 36.0343C72.0174 35.9736 71.9248 35.9486 71.8394 35.9522C71.7468 35.9593 71.6649 36.0022 71.608 36.0701L68.7885 39.4343C68.671 39.5772 68.6853 39.7843 68.8206 39.9058C72.0103 42.7629 75.9333 44.2701 80.1696 44.2701C86.1574 44.2701 90.0271 40.9879 90.0271 35.9058C90.0377 31.6176 87.4781 29.2426 81.2091 27.7126L81.1984 27.7079ZM103.576 22.6151C100.981 22.6151 98.8521 23.6408 97.0935 25.7426V23.3768C97.0935 23.1901 96.944 23.0379 96.7589 23.0379H92.1488C91.9637 23.0379 91.8141 23.1901 91.8141 23.3768V49.6629C91.8141 49.8486 91.9637 50.0022 92.1488 50.0022H96.7589C96.944 50.0022 97.0935 49.8486 97.0935 49.6629V41.3665C98.8521 43.3415 100.981 44.3093 103.576 44.3093C108.4 44.3093 113.284 40.5843 113.284 33.4633C113.291 26.3408 108.407 22.6147 103.58 22.6147L103.576 22.6151ZM107.923 33.4633C107.923 37.0879 105.698 39.6201 102.508 39.6201C99.3576 39.6201 96.9796 36.9736 96.9796 33.4633C96.9796 29.9526 99.3576 27.3068 102.508 27.3068C105.644 27.3065 107.923 29.8954 107.923 33.4633ZM125.797 22.6151C119.585 22.6151 114.719 27.4136 114.719 33.5408C114.719 39.6022 119.553 44.3486 125.722 44.3486C131.956 44.3486 136.837 39.5665 136.837 33.4633C136.837 27.3808 131.988 22.6158 125.797 22.6158V22.6151ZM125.797 39.6558C122.494 39.6558 120.002 36.9915 120.002 33.4615C120.002 29.9154 122.408 27.3422 125.722 27.3422C129.047 27.3422 131.554 30.0054 131.554 33.539C131.554 37.0843 129.133 39.6558 125.797 39.6558ZM150.101 23.0379H145.028V17.8358C145.028 17.6493 144.878 17.4972 144.693 17.4972H140.083C139.898 17.4972 139.745 17.6493 139.745 17.8358V23.0379H137.531C137.346 23.0379 137.196 23.1901 137.196 23.3768V27.3508C137.196 27.5372 137.346 27.6897 137.531 27.6897H139.745V37.9736C139.745 42.1272 141.806 44.2343 145.875 44.2343C147.527 44.2343 148.898 43.8915 150.19 43.1558C150.297 43.0986 150.361 42.9843 150.361 42.8629V39.0772C150.361 38.9629 150.3 38.8522 150.201 38.7915C150.101 38.7272 149.976 38.7236 149.873 38.7772C148.987 39.2236 148.129 39.4308 147.167 39.4308C145.69 39.4308 145.028 38.7558 145.028 37.2486V27.6915H150.101C150.286 27.6915 150.435 27.5393 150.435 27.3526V23.379C150.443 23.1922 150.293 23.0401 150.104 23.0401L150.101 23.0379ZM167.772 23.0583V22.4193C167.772 20.5397 168.491 19.7015 170.101 19.7015C171.062 19.7015 171.834 19.8929 172.699 20.1822C172.806 20.2158 172.916 20.199 173.002 20.1351C173.091 20.0711 173.141 19.9686 173.141 19.8601V15.9636C173.141 15.8147 173.048 15.6829 172.902 15.639C171.991 15.3665 170.823 15.0868 169.072 15.0868C164.818 15.0868 162.564 17.4918 162.564 22.0393V23.0179H160.35C160.165 23.0179 160.012 23.1701 160.012 23.3565V27.3508C160.012 27.5372 160.165 27.6897 160.35 27.6897H162.564V43.5486C162.564 43.7379 162.717 43.8879 162.902 43.8879H167.509C167.698 43.8879 167.847 43.7379 167.847 43.5486V27.6908H172.151L178.744 43.5486C177.996 45.2129 177.26 45.5451 176.256 45.5451C175.444 45.5451 174.586 45.3022 173.714 44.8201C173.632 44.7772 173.532 44.7701 173.447 44.7951C173.358 44.8272 173.283 44.8915 173.248 44.9772L171.685 48.4165C171.61 48.5808 171.674 48.7701 171.831 48.8558C173.461 49.7415 174.931 50.1201 176.75 50.1201C180.154 50.1201 182.037 48.5272 183.692 44.2486L191.688 23.5211C191.731 23.4168 191.716 23.299 191.652 23.2065C191.592 23.1147 191.489 23.0593 191.378 23.0593H186.579C186.433 23.0593 186.305 23.1511 186.259 23.2865L181.343 37.3701L175.96 23.2772C175.91 23.1461 175.786 23.0593 175.647 23.0593H167.772V23.0583ZM157.527 23.0379H152.917C152.732 23.0379 152.579 23.1901 152.579 23.3768V43.5486C152.579 43.7379 152.732 43.8879 152.917 43.8879H157.527C157.712 43.8879 157.865 43.7379 157.865 43.5486V23.3783C157.865 23.1915 157.716 23.0393 157.527 23.0393V23.0379ZM155.249 13.8526C153.422 13.8526 151.941 15.3354 151.941 17.1672C151.941 19.0001 153.422 20.4847 155.249 20.4847C157.075 20.4847 158.552 19.0001 158.552 17.1672C158.552 15.3358 157.071 13.8526 155.249 13.8526ZM195.625 29.524C193.803 29.524 192.382 28.0543 192.382 26.2697C192.382 24.4851 193.82 22.9986 195.643 22.9986C197.466 22.9986 198.886 24.4679 198.886 26.2511C198.886 28.0358 197.448 29.524 195.625 29.524ZM195.643 23.3222C193.981 23.3222 192.724 24.6472 192.724 26.2697C192.724 27.8915 193.973 29.1986 195.625 29.1986C197.288 29.1986 198.544 27.8747 198.544 26.2511C198.544 24.6293 197.295 23.3222 195.643 23.3222ZM196.362 26.5858L197.281 27.8743H196.505L195.679 26.6922H194.97V27.8743H194.322V24.4586H195.839C196.633 24.4586 197.152 24.8647 197.152 25.5483C197.156 26.1083 196.832 26.4504 196.366 26.5858H196.362ZM195.814 25.0447H194.97V26.1251H195.814C196.234 26.1251 196.487 25.9183 196.487 25.5843C196.487 25.2329 196.234 25.0447 195.814 25.0447Z" fill="white"/>
</g>
<defs>
<clipPath id="clip0_1160_2425">
<rect width="199" height="60" fill="white"/>
</clipPath>
</defs>
</svg>
